<svg id="Capa_1" data-name="Capa 1" xmlns="http://www.w3.org/2000/svg" viewBox="0 0 184.1 236.13"><defs><style>.cls-1,.cls-2{font-size:200px;font-family:CenturyGothic, Century Gothic;}.cls-2,.cls-4{fill:#2d52a0;}.cls-3,.cls-4,.cls-5{stroke:#1d1d1b;stroke-miterlimit:10;}.cls-5{fill:#fafafa;}.cls-6{fill:#1d1d1b;}</style></defs><title>Cara Visovi</title><text class="cls-1" transform="translate(10.28 174.8)">O</text><text class="cls-2" transform="translate(0 171.8)">O</text><path class="cls-3" d="M135.33,67.29c.39,27.1-42.17,27.1-41.77,0C93.17,40.2,135.73,40.2,135.33,67.29Z" transform="translate(5.03 20.9)"/><path class="cls-3" d="M84.77,66.29c.4,27.1-42.16,27.1-41.76,0C42.61,39.2,85.17,39.2,84.77,66.29Z" transform="translate(5.03 20.9)"/><path class="cls-4" d="M130.75,66.29c.4,27.1-42.16,27.1-41.76,0C88.6,39.2,131.15,39.2,130.75,66.29Z" transform="translate(5.03 20.9)"/><path class="cls-4" d="M79.65,66.29c.39,27.1-42.17,27.1-41.77,0C37.49,39.2,80,39.2,79.65,66.29Z" transform="translate(5.03 20.9)"/><circle class="cls-5" cx="114.32" cy="87.53" r="12"/><path class="cls-5" d="M71.28,66.64c0,11.3-15,16.27-21.69,7.08-5.68-7.79.1-19.08,9.69-19.08A12,12,0,0,1,71.28,66.64Z" transform="translate(5.03 20.9)"/><circle class="cls-3" cx="63.48" cy="87.21" r="3.51"/><circle class="cls-3" cx="113.59" cy="87.21" r="3.51"/><path class="cls-6" d="M91.83,131a25.75,25.75,0,0,1-8.76-1.6c-5.29-1.9-10.53-5.48-15.6-10.64l.61-1.35c5,5,10.09,8.55,15.24,10.41a23.54,23.54,0,0,0,15.3.51,32,32,0,0,0,14.44-9.08c4.68-4.85,8.88-11.36,12.47-19.35l.91.9c-3.67,8.16-8,14.82-12.76,19.78A32.84,32.84,0,0,1,98.83,130,23.6,23.6,0,0,1,91.83,131Z" transform="translate(5.03 20.9)"/><path class="cls-6" d="M129.19,111a24.72,24.72,0,0,0-1.28-6.32,13.26,13.26,0,0,0-2.57-4.52,8.3,8.3,0,0,0-8.46-2.81l-.16-1.61a9.34,9.34,0,0,1,5.16.24A9.55,9.55,0,0,1,126,98.9a14.93,14.93,0,0,1,2.88,5.06,28,28,0,0,1,1.4,6.88Z" transform="translate(5.03 20.9)"/></svg>