<svg xmlns="http://www.w3.org/2000/svg" viewBox="0 0 769.26 266.76"><defs><style>.cls-1{fill:#fff;}.cls-1,.cls-14,.cls-15,.cls-16{stroke:#1d1d1b;stroke-miterlimit:10;}.cls-2,.cls-8{font-size:200px;font-family:Tahoma;}.cls-3{letter-spacing:-0.01em;}.cls-10,.cls-13,.cls-4,.cls-5,.cls-7,.cls-9{font-family:Originalbyfnkfrsh, Original by fnkfrsh;}.cls-4{letter-spacing:-0.02em;}.cls-5{letter-spacing:-0.03em;}.cls-11,.cls-6{font-family:CenturyGothic, Century Gothic;}.cls-6{letter-spacing:-0.04em;}.cls-15,.cls-8{fill:#2d52a0;}.cls-8{letter-spacing:0em;}.cls-13,.cls-9{font-size:207px;}.cls-9{letter-spacing:-0.02em;}.cls-10{font-size:201px;letter-spacing:-0.03em;}.cls-11{letter-spacing:-0.04em;}.cls-12{letter-spacing:0em;}.cls-13{letter-spacing:0em;}.cls-16{fill:#fafafa;}.cls-17{fill:#1d1d1b;}</style></defs><title>Recurso 1VISOVI</title><g id="Capa_2" data-name="Capa 2"><g id="Capa_1-2" data-name="Capa 1"><rect class="cls-1" x="0.5" y="3.16" width="768.26" height="211.4" rx="42.51"/><text class="cls-2" transform="translate(78.95 182.97)"><tspan class="cls-3">V</tspan><tspan class="cls-4" x="118" y="0">I</tspan><tspan class="cls-5" x="178.21" y="0">S</tspan><tspan class="cls-6" x="284.92" y="0">O</tspan><tspan class="cls-3" x="450.53" y="0">V</tspan><tspan class="cls-7" x="568.53" y="0">I</tspan></text><text class="cls-8" transform="translate(65.67 175.97)">V<tspan class="cls-9" x="119.06" y="0">I</tspan><tspan class="cls-10" x="181.55" y="0">S</tspan><tspan class="cls-11" x="288.81" y="0">O</tspan><tspan class="cls-12" x="454.42" y="0">V</tspan><tspan class="cls-13" x="573.47" y="0">I</tspan></text><path class="cls-14" d="M491.45,90.75c.39,27.1-42.17,27.1-41.77,0C449.29,63.66,491.84,63.66,491.45,90.75Z"/><path class="cls-14" d="M440.89,89.75c.4,27.1-42.16,27.1-41.76,0C398.73,62.66,441.29,62.66,440.89,89.75Z"/><path class="cls-15" d="M486.87,86.75c.4,27.1-42.16,27.1-41.76,0C444.71,59.66,487.27,59.66,486.87,86.75Z"/><path class="cls-15" d="M435.76,86.75c.4,27.1-42.16,27.1-41.76,0C393.6,59.66,436.16,59.66,435.76,86.75Z"/><circle class="cls-16" cx="465.4" cy="87.1" r="12"/><path class="cls-16" d="M427.4,87.1c0,11.3-15,16.27-21.69,7.08-5.69-7.79.1-19.08,9.69-19.08A12,12,0,0,1,427.4,87.1Z"/><path class="cls-17" d="M446.67,148.88a25.74,25.74,0,0,1-8.76-1.59c-5.29-1.91-10.53-5.49-15.6-10.65l.61-1.35c5,5.05,10.09,8.56,15.24,10.41a23.54,23.54,0,0,0,15.3.51,32,32,0,0,0,14.44-9.08c4.68-4.85,8.88-11.36,12.47-19.35l.91.91c-3.67,8.16-8,14.81-12.76,19.77a32.84,32.84,0,0,1-14.85,9.35A23.6,23.6,0,0,1,446.67,148.88Z"/><path class="cls-17" d="M484,128.89a24.54,24.54,0,0,0-1.28-6.32,13.41,13.41,0,0,0-2.57-4.53,8.78,8.78,0,0,0-3.71-2.6,8.63,8.63,0,0,0-4.75-.2l-.16-1.61a9.34,9.34,0,0,1,5.16.23,9.66,9.66,0,0,1,4.12,2.89,14.78,14.78,0,0,1,2.88,5,28,28,0,0,1,1.4,6.89Z"/><circle class="cls-14" cx="464.99" cy="86.75" r="5.11"/><circle class="cls-14" cx="414.88" cy="86.75" r="5.11"/></g></g></svg>