<svg id="Capa_1" data-name="Capa 1" xmlns="http://www.w3.org/2000/svg" viewBox="0 0 787.64 275.59"><defs><style>.cls-1{fill:#a07b2d;}.cls-1,.cls-14,.cls-15,.cls-16{stroke:#1d1d1b;stroke-miterlimit:10;}.cls-2,.cls-8{font-size:200px;font-family:Tahoma;}.cls-3{letter-spacing:-0.01em;}.cls-10,.cls-13,.cls-4,.cls-5,.cls-7,.cls-9{font-family:Originalbyfnkfrsh, Original by fnkfrsh;}.cls-4{letter-spacing:-0.02em;}.cls-5{letter-spacing:-0.03em;}.cls-11,.cls-6{font-family:CenturyGothic, Century Gothic;}.cls-6{letter-spacing:-0.04em;}.cls-15,.cls-8{fill:#2d52a0;}.cls-8{letter-spacing:0em;}.cls-13,.cls-9{font-size:207px;}.cls-9{letter-spacing:-0.02em;}.cls-10{font-size:201px;letter-spacing:-0.03em;}.cls-11{letter-spacing:-0.04em;}.cls-12{letter-spacing:0em;}.cls-13{letter-spacing:0em;}.cls-16{fill:#fafafa;}.cls-17{fill:#1d1d1b;}</style></defs><title>VISOVI-fondo</title><rect class="cls-1" x="0.5" y="0.5" width="786.64" height="244.34" rx="49.4"/><text class="cls-2" transform="translate(75.88 191.8)"><tspan class="cls-3">V</tspan><tspan class="cls-4" x="118" y="0">I</tspan><tspan class="cls-5" x="178.21" y="0">S</tspan><tspan class="cls-6" x="284.92" y="0">O</tspan><tspan class="cls-3" x="450.53" y="0">V</tspan><tspan class="cls-7" x="568.53" y="0">I</tspan></text><text class="cls-8" transform="translate(62.61 184.8)">V<tspan class="cls-9" x="119.06" y="0">I</tspan><tspan class="cls-10" x="181.55" y="0">S</tspan><tspan class="cls-11" x="288.81" y="0">O</tspan><tspan class="cls-12" x="454.42" y="0">V</tspan><tspan class="cls-13" x="573.47" y="0">I</tspan></text><path class="cls-14" d="M553,144.27c.39,27.1-42.16,27.1-41.77,0C510.83,117.18,553.39,117.18,553,144.27Z" transform="translate(-64.61 -44.69)"/><path class="cls-14" d="M502.43,143.27c.4,27.1-42.16,27.1-41.76,0C460.27,116.18,502.83,116.18,502.43,143.27Z" transform="translate(-64.61 -44.69)"/><path class="cls-15" d="M548.42,140.27c.39,27.1-42.17,27.1-41.77,0C506.26,113.18,548.81,113.18,548.42,140.27Z" transform="translate(-64.61 -44.69)"/><path class="cls-15" d="M497.31,140.27c.39,27.1-42.17,27.1-41.77,0C455.15,113.18,497.71,113.18,497.31,140.27Z" transform="translate(-64.61 -44.69)"/><circle class="cls-16" cx="462.34" cy="95.93" r="12"/><path class="cls-16" d="M489,140.62c0,11.3-15,16.27-21.7,7.08-5.68-7.79.1-19.08,9.7-19.08A12,12,0,0,1,489,140.62Z" transform="translate(-64.61 -44.69)"/><path class="cls-17" d="M508.21,202.4a25.51,25.51,0,0,1-8.76-1.6c-5.28-1.9-10.53-5.48-15.6-10.64l.62-1.35c4.95,5.05,10.08,8.55,15.24,10.41a23.51,23.51,0,0,0,15.29.51,32,32,0,0,0,14.44-9.08c4.68-4.85,8.88-11.36,12.48-19.35l.9.91c-3.67,8.16-8,14.81-12.75,19.77-4.6,4.77-9.6,7.91-14.86,9.35A23.55,23.55,0,0,1,508.21,202.4Z" transform="translate(-64.61 -44.69)"/><path class="cls-17" d="M545.58,182.41a25.59,25.59,0,0,0-1.28-6.33,13.47,13.47,0,0,0-2.58-4.52,8.25,8.25,0,0,0-8.46-2.8l-.16-1.62a9.44,9.44,0,0,1,5.16.24,9.57,9.57,0,0,1,4.12,2.89,14.78,14.78,0,0,1,2.88,5,27.1,27.1,0,0,1,1.4,6.89Z" transform="translate(-64.61 -44.69)"/><circle class="cls-14" cx="461.93" cy="95.58" r="5.11"/><circle class="cls-14" cx="411.82" cy="95.58" r="5.11"/></svg>