<svg id="Capa_1" data-name="Capa 1" xmlns="http://www.w3.org/2000/svg" viewBox="0 0 647.74 266.76"><defs><style>.cls-1,.cls-7{font-size:200px;font-family:Tahoma;}.cls-2{letter-spacing:-0.01em;}.cls-12,.cls-3,.cls-4,.cls-6,.cls-8,.cls-9{font-family:Originalbyfnkfrsh, Original by fnkfrsh;}.cls-3{letter-spacing:-0.02em;}.cls-4{letter-spacing:-0.03em;}.cls-10,.cls-5{font-family:CenturyGothic, Century Gothic;}.cls-5{letter-spacing:-0.04em;}.cls-14,.cls-7{fill:#2d52a0;}.cls-7{letter-spacing:0em;}.cls-12,.cls-8{font-size:207px;}.cls-8{letter-spacing:-0.02em;}.cls-9{font-size:201px;letter-spacing:-0.03em;}.cls-10{letter-spacing:-0.04em;}.cls-11{letter-spacing:0em;}.cls-12{letter-spacing:0em;}.cls-13,.cls-14,.cls-15{stroke:#1d1d1b;stroke-miterlimit:10;}.cls-15{fill:#fafafa;}.cls-16{fill:#1d1d1b;}</style></defs><title>VISOVI</title><text class="cls-1" transform="translate(14.08 182.97)"><tspan class="cls-2">V</tspan><tspan class="cls-3" x="118" y="0">I</tspan><tspan class="cls-4" x="178.21" y="0">S</tspan><tspan class="cls-5" x="284.92" y="0">O</tspan><tspan class="cls-2" x="450.53" y="0">V</tspan><tspan class="cls-6" x="568.53" y="0">I</tspan></text><text class="cls-7" transform="translate(0.8 175.97)">V<tspan class="cls-8" x="119.06" y="0">I</tspan><tspan class="cls-9" x="181.55" y="0">S</tspan><tspan class="cls-10" x="288.81" y="0">O</tspan><tspan class="cls-11" x="454.42" y="0">V</tspan><tspan class="cls-12" x="573.47" y="0">I</tspan></text><path class="cls-13" d="M519.88,83.21c.4,27.09-42.16,27.09-41.76,0C477.72,56.12,520.28,56.12,519.88,83.21Z" transform="translate(-93.31 7.54)"/><path class="cls-13" d="M469.33,82.21c.39,27.09-42.17,27.09-41.77,0C427.17,55.12,469.73,55.12,469.33,82.21Z" transform="translate(-93.31 7.54)"/><path class="cls-14" d="M515.31,79.21c.39,27.09-42.16,27.09-41.76,0C473.15,52.12,515.71,52.12,515.31,79.21Z" transform="translate(-93.31 7.54)"/><path class="cls-14" d="M464.2,79.21c.4,27.09-42.16,27.09-41.76,0C422,52.12,464.6,52.12,464.2,79.21Z" transform="translate(-93.31 7.54)"/><circle class="cls-15" cx="400.53" cy="87.1" r="12"/><path class="cls-15" d="M455.84,79.55c0,11.31-15,16.28-21.69,7.08-5.69-7.78.1-19.08,9.69-19.08A12,12,0,0,1,455.84,79.55Z" transform="translate(-93.31 7.54)"/><path class="cls-16" d="M475.11,141.33a25.83,25.83,0,0,1-8.77-1.59c-5.28-1.9-10.53-5.49-15.6-10.65l.62-1.34c5,5.05,10.08,8.55,15.24,10.41a23.64,23.64,0,0,0,15.29.51,32,32,0,0,0,14.45-9.09c4.68-4.84,8.87-11.35,12.47-19.34l.91.9c-3.68,8.16-8,14.82-12.76,19.78-4.6,4.76-9.6,7.91-14.86,9.35A23.52,23.52,0,0,1,475.11,141.33Z" transform="translate(-93.31 7.54)"/><path class="cls-16" d="M512.47,121.34a25.51,25.51,0,0,0-1.28-6.32,13.12,13.12,0,0,0-2.58-4.52,8.52,8.52,0,0,0-3.7-2.6,8.66,8.66,0,0,0-4.76-.21l-.16-1.61a9.47,9.47,0,0,1,5.17.23,9.63,9.63,0,0,1,4.11,2.89,14.83,14.83,0,0,1,2.88,5.06,27.11,27.11,0,0,1,1.4,6.88Z" transform="translate(-93.31 7.54)"/><circle class="cls-13" cx="400.12" cy="86.75" r="5.11"/><circle class="cls-13" cx="350.01" cy="86.75" r="5.11"/></svg>